<svg xmlns="http://www.w3.org/2000/svg" xmlns:xlink="http://www.w3.org/1999/xlink" width="2067px" height="2067px" viewBox="0 0 2067.1875 2067.1875">
    <g id="6ecab38c-bdf8-47ac-bfb4-96f81ec8254c"><path style="fill: rgb(255,107,74); fill-opacity: 1.00;  stroke: none;  stroke-linecap: butt; stroke-linejoin: miter; stroke-miterlimit: 4; stroke-width: 0;  stroke-dashoffset: 0;  fill-rule: nonzero;" d="M47.06629,1033.59375c0,-544.84407 441.68339,-986.52746 986.52746,-986.52746c544.84407,0 986.52746,441.68339 986.52746,986.52746c0,544.84407 -441.68339,986.52746 -986.52746,986.52746c-544.84407,0 -986.52746,-441.68339 -986.52746,-986.52746z"></path></g><g id="ca5ea696-fba1-47d5-bc34-add74073fe83">
<g style="">
		<g id="ca5ea696-fba1-47d5-bc34-add74073fe83-child-0">
<path style="stroke: rgb(193,193,193); stroke-opacity: 1.00; stroke-width: 0; stroke-dasharray: none; stroke-linecap: butt; stroke-dashoffset: 0; stroke-linejoin: miter; stroke-miterlimit: 4; fill: rgb(0,0,0); fill-opacity: 1.00; fill-rule: nonzero; opacity: 1;" transform="matrix(1.671164 0 0 1.671087 1033.59375 1033.59375) matrix(1 0 0 1 0 0)  translate(-369.5, -492.730369)" d="M 563.36 983.78 C 562.95 983.11 562.06 970.39 561.38 955.53 C 559.87 922.00 559.40 920.22 549.72 911.38 C 540.64 903.08 533.01 899.67 488.50 884.02 C 416.62 858.74 369.46 839.03 350.51 826.34 C 344.57 822.36 343.25 822.22 342.03 825.43 C 341.02 828.07 341.79 831.76 344.38 836.76 C 346.37 840.62 346.38 841.00 344.50 841.00 C 341.87 841.00 328.07 826.93 316.55 812.50 C 296.32 787.17 281.01 765.05 263.53 735.94 C 257.11 725.25 251.55 716.18 251.16 715.78 C 250.78 715.39 246.89 716.20 242.52 717.59 C 237.68 719.12 229.35 720.63 221.24 721.44 C 213.90 722.17 207.62 723.05 207.27 723.40 C 206.39 724.28 208.26 743.44 214.02 792.50 C 220.27 845.81 221.27 856.76 220.21 860.50 C 219.48 863.11 218.85 863.54 215.43 863.77 C 207.59 864.32 201.54 857.94 200.53 848.07 C 198.00 823.43 194.72 814.54 179.85 792.00 C 155.35 754.87 97.83 665.74 89.41 651.85 C 72.97 624.74 52.71 587.22 41.57 563.28 C 7.92 490.93 -1.73 439.59 9.55 392.99 C 12.40 381.21 20.21 356.87 23.63 349.13 C 26.36 342.94 26.62 339.76 24.54 338.03 C 22.70 336.50 19.78 338.44 8.25 348.82 L 0.00 356.25 L 0.00 351.19 C 0.00 334.65 13.58 300.01 27.15 281.93 C 36.26 269.79 56.10 250.10 64.75 244.61 C 72.38 239.77 74.04 236.78 69.82 235.44 C 66.69 234.45 54.07 234.74 48.91 235.94 C 42.21 237.48 39.00 237.29 39.00 235.34 C 39.00 231.11 60.34 216.27 73.35 211.45 C 89.38 205.51 89.41 205.47 90.37 190.00 C 90.73 184.23 91.49 177.48 92.05 175.00 C 94.49 164.36 109.13 140.50 112.79 141.20 C 114.25 141.47 114.61 143.38 115.23 154.01 C 116.26 171.47 116.63 173.27 118.95 172.03 C 119.97 171.48 123.74 167.31 127.31 162.77 C 130.89 158.22 136.44 151.95 139.66 148.83 C 149.90 138.88 176.00 121.24 191.12 114.03 C 197.47 111.00 200.23 108.03 199.27 105.25 C 198.53 103.12 192.41 103.86 181.23 107.43 C 166.15 112.24 163.10 112.97 162.46 111.94 C 160.07 108.06 180.36 93.88 201.59 84.58 C 223.57 74.95 232.85 72.86 263.94 70.50 C 308.58 67.11 336.00 61.97 336.00 57.00 C 336.00 56.02 335.18 54.21 334.17 52.97 C 332.54 50.94 331.11 50.63 320.42 49.98 C 307.79 49.20 305.00 48.57 305.00 46.51 C 305.00 44.72 315.78 40.40 326.38 37.93 C 336.32 35.62 351.76 35.00 367.00 36.32 L 376.50 37.14 L 387.00 22.98 C 392.77 15.19 398.24 7.86 399.14 6.69 C 400.50 4.92 401.03 4.78 402.32 5.85 C 405.86 8.79 407.04 23.61 404.50 33.34 C 402.12 42.48 402.66 47.00 406.15 47.00 C 408.39 47.00 413.97 44.27 421.31 39.58 C 439.16 28.18 472.93 15.00 484.31 15.00 L 488.99 15.00 L 484.50 21.56 C 474.22 36.58 477.66 37.88 500.00 27.43 C 506.33 24.47 515.33 21.11 520.00 19.94 C 524.68 18.78 532.26 16.75 536.86 15.42 C 546.57 12.61 551.80 12.31 552.65 14.52 C 552.97 15.36 552.25 18.31 551.06 21.09 C 546.93 30.69 550.15 35.13 556.69 28.84 C 560.82 24.88 563.46 19.99 564.44 14.50 C 565.13 10.64 567.79 4.03 569.85 1.07 C 570.67 -0.11 571.66 0.30 575.44 3.40 C 581.44 8.31 587.69 17.62 590.92 26.44 C 593.33 33.03 593.50 34.67 593.50 51.00 C 593.50 69.51 592.14 78.65 586.60 97.50 C 585.30 101.90 584.44 105.84 584.68 106.25 C 584.92 106.66 586.44 107.00 588.06 107.00 C 596.70 107.00 610.03 81.76 611.68 62.30 C 612.43 53.38 613.88 51.69 617.45 55.54 C 621.09 59.47 628.53 72.70 630.67 79.06 C 632.26 83.78 632.50 87.94 632.50 110.50 C 632.50 135.12 632.38 136.86 630.17 143.24 C 627.59 150.71 617.78 167.61 611.24 175.84 C 608.91 178.78 607.00 181.76 607.00 182.47 C 607.00 184.25 608.96 185.71 612.51 186.56 C 617.17 187.69 624.13 191.46 629.73 195.88 C 635.32 200.30 643.05 210.53 644.86 215.90 C 645.96 219.18 646.48 230.00 645.53 230.00 C 645.28 230.00 641.23 227.50 636.54 224.44 C 631.84 221.38 626.77 218.79 625.25 218.69 C 622.81 218.52 622.46 218.88 622.18 221.90 C 621.96 224.19 622.85 227.28 624.91 231.40 C 629.22 239.99 630.90 251.58 631.82 279.05 C 632.50 299.08 632.89 303.08 634.53 306.49 C 637.22 312.07 644.87 319.72 648.50 320.45 C 665.89 323.96 691.02 342.07 702.74 359.54 C 707.28 366.31 708.43 367.43 711.98 368.52 C 715.72 369.67 720.92 373.29 721.54 375.18 C 721.84 376.10 720.99 379.47 719.65 382.68 C 716.08 391.19 715.16 395.11 713.45 409.00 C 709.76 439.00 695.70 455.75 686.40 466.29 C 681.48 471.88 671.39 475.84 671.39 475.84 L 676.10 493.50 C 677.07 500.65 678.12 512.58 678.45 520.00 C 680.00 554.91 680.41 556.44 690.01 563.16 C 701.34 571.07 714.22 572.91 726.50 568.37 C 736.67 564.62 739.00 564.32 739.00 566.75 C 739.00 570.38 732.15 582.44 727.30 587.36 C 718.63 596.16 711.98 599.84 699.82 602.61 C 687.78 605.35 686.21 609.62 687.42 636.38 C 689.10 673.61 689.93 678.67 698.80 705.50 C 702.93 718.00 703.43 720.47 703.42 728.50 C 703.42 735.50 702.91 738.78 701.14 743.24 C 695.03 758.64 685.35 767.78 649.48 791.99 C 625.66 808.07 620.75 812.14 619.12 817.21 C 617.07 823.59 612.46 871.84 609.51 918.00 C 607.95 942.35 606.27 961.31 605.43 964.13 C 605.15 965.06 601.81 966.90 597.60 968.43 C 593.57 969.90 586.72 973.14 582.38 975.63 C 573.89 980.51 565.36 985.00 564.59 985.00 C 564.33 985.00 563.78 984.45 563.36 983.78 z M 457.50 761.99 C 527.68 760.18 531.45 759.70 589.00 745.12 C 606.33 740.73 629.03 735.50 639.44 733.49 C 663.15 728.93 666.72 727.20 671.63 718.00 C 674.51 712.61 674.21 697.48 671.08 689.50 C 669.79 686.20 667.28 679.41 665.52 674.40 C 660.56 660.37 650.35 647.24 640.50 642.25 C 636.07 640.00 634.37 639.73 625.50 639.85 C 616.73 639.96 601.47 641.43 586.87 643.56 L 582.25 644.24 L 583.60 636.48 C 584.34 632.21 585.71 627.88 586.64 626.85 C 589.82 623.33 610.31 619.02 623.92 619.01 C 643.35 618.99 653.54 613.15 650.89 603.55 C 649.71 599.31 642.20 590.67 637.61 588.30 C 631.12 584.94 598.34 585.66 583.50 589.49 C 574.59 591.79 561.10 598.62 544.18 609.38 C 511.55 630.15 498.21 636.05 479.16 638.12 C 467.04 639.43 452.00 638.32 444.10 635.53 C 436.45 632.84 419.00 619.87 419.00 616.89 C 419.00 615.79 417.11 616.02 434.00 615.06 C 442.06 614.61 449.83 613.65 451.50 612.91 C 461.49 608.48 476.62 594.34 494.21 573.00 C 509.39 554.59 519.57 546.03 538.00 536.17 C 552.47 528.43 556.07 527.64 577.79 527.47 C 590.92 527.37 597.45 526.95 598.24 526.16 C 599.12 525.28 598.48 524.05 595.57 521.08 C 589.93 515.30 590.80 513.22 607.46 492.60 C 617.12 480.65 624.00 470.69 624.00 468.64 C 624.00 466.21 617.30 458.49 597.25 437.79 C 586.75 426.94 575.31 414.16 571.83 409.38 C 556.62 388.48 554.68 386.76 545.74 386.21 C 537.81 385.71 529.99 388.50 523.67 394.06 C 518.22 398.86 517.46 401.81 516.46 421.93 C 516.10 429.31 515.16 437.86 514.37 440.93 C 512.45 448.44 505.89 462.00 500.55 469.48 C 495.66 476.33 486.52 483.37 476.97 489.12 C 465.57 495.98 461.09 497.41 453.50 499.40 C 446.34 501.28 438.95 501.50 431.85 501.48 C 424.97 501.46 411.52 499.40 411.52 499.40 C 411.52 499.40 398.91 496.40 391.68 492.09 C 384.69 487.92 377.77 482.78 372.58 477.65 C 364.12 469.29 359.35 462.54 351.32 447.55 C 347.57 440.56 343.37 433.48 341.98 431.81 L 339.46 428.79 L 330.48 432.30 C 312.29 439.40 269.68 461.00 250.66 472.76 C 237.37 480.99 236.46 485.01 243.72 503.50 C 245.67 508.45 249.70 519.46 252.68 527.96 L 258.11 543.41 L 255.80 545.25 C 250.96 549.11 242.23 554.78 235.53 558.42 L 228.56 562.20 L 214.03 547.31 C 206.04 539.12 197.48 531.06 195.00 529.39 C 184.54 522.33 164.63 516.91 149.00 516.87 C 124.77 516.79 110.51 527.22 103.07 550.46 C 98.21 565.63 97.51 571.84 99.44 582.96 C 106.72 625.04 135.91 662.54 177.57 683.31 C 195.73 692.37 210.04 695.72 219.56 693.13 C 225.87 691.41 232.51 686.43 237.51 679.67 C 246.53 667.46 247.09 666.87 249.33 667.19 C 251.66 667.53 261.19 678.84 270.02 691.77 C 303.32 740.55 325.16 758.92 353.39 761.88 C 365.03 763.11 412.25 763.15 457.50 761.99 z M 660.66 477.33 C 658.55 477.33 655.72 476.60 653.76 476.11 C 652.28 475.74 650.98 475.26 649.90 474.86 C 648.77 474.45 643.34 472.02 643.34 472.02 C 643.34 472.02 636.77 469.00 635.02 467.35 C 633.94 466.34 643.18 485.09 640.33 499.25 C 637.79 511.84 623.08 525.32 622.62 526.16 C 622.16 527.01 620.78 527.34 631.60 528.93 C 636.98 529.72 641.21 530.70 645.02 532.44 C 648.26 533.91 653.29 538.09 653.29 538.09 L 662.92 544.67 C 662.92 544.67 662.54 477.33 660.66 477.33 z M 623.03 511.98 C 628.04 509.30 633.24 494.33 631.10 488.75 C 630.52 487.24 629.61 486.00 629.07 486.00 C 625.81 486.00 621.10 496.57 619.70 505.29 C 618.70 511.58 618.84 514.23 623.03 511.98 z M 246.32 454.67 C 250.27 452.85 264.75 445.25 278.50 437.80 C 292.25 430.35 312.50 419.75 323.50 414.24 C 334.50 408.73 344.32 403.32 345.33 402.20 C 348.11 399.11 347.11 395.80 342.75 393.67 C 340.32 392.48 339.00 391.15 339.00 389.88 C 339.00 386.98 343.59 378.38 349.22 370.74 C 368.85 344.10 398.55 334.32 461.67 333.71 L 482.81 333.50 L 487.06 336.50 C 493.57 341.10 495.28 344.03 496.15 352.15 C 497.21 362.10 499.79 368.71 504.58 373.72 C 509.48 378.86 511.49 379.06 522.34 375.52 C 526.80 374.06 534.57 372.61 541.21 372.00 C 547.42 371.43 553.99 370.68 555.82 370.35 C 559.62 369.66 560.34 368.29 562.58 357.52 C 564.63 347.68 568.12 341.12 574.52 335.07 C 583.08 326.98 592.79 323.39 616.66 319.53 C 618.94 319.16 621.63 318.26 622.62 317.54 C 624.20 316.38 624.26 315.87 623.12 313.36 C 619.10 304.53 585.94 258.47 564.70 232.22 C 553.77 218.72 543.96 209.24 534.01 202.59 L 527.50 198.24 L 497.00 200.05 C 418.44 204.73 410.53 205.47 386.00 210.42 C 336.42 220.44 290.39 235.83 271.32 248.78 C 257.96 257.85 247.40 273.48 246.28 285.83 C 245.54 293.97 247.03 301.00 254.12 322.83 C 264.45 354.61 264.04 358.03 244.95 401.00 C 240.67 410.62 236.68 421.20 236.07 424.50 C 234.43 433.42 232.89 452.73 233.60 455.54 C 234.46 458.95 237.54 458.74 246.32 454.67 z M 368.28 424.25 C 370.72 421.54 372.06 417.30 373.55 407.52 C 375.70 393.42 384.05 378.63 394.01 371.27 C 406.88 361.76 407.90 360.29 403.54 357.43 C 399.00 354.46 390.35 358.69 379.29 369.29 C 366.63 381.42 361.22 393.18 360.27 410.67 C 359.72 420.81 359.73 420.84 362.51 423.42 C 365.81 426.48 366.21 426.53 368.28 424.25 z M 586.10 390.82 C 586.74 389.62 588.33 384.35 589.63 379.09 C 590.93 373.84 593.14 367.18 594.55 364.30 C 597.28 358.72 604.10 352.02 610.25 348.88 C 616.38 345.74 614.82 341.00 607.66 341.00 C 599.77 341.00 588.45 349.25 582.56 359.31 C 577.72 367.57 575.06 385.50 577.89 390.79 C 579.50 393.80 584.49 393.82 586.10 390.82 z M 199.00 644.05 C 196.38 642.60 192.12 641.88 182.01 641.16 L 168.52 640.20 L 163.44 634.75 C 151.63 622.06 150.35 610.13 158.97 593.05 C 160.64 589.76 162.00 586.44 162.00 585.69 C 162.00 584.46 149.75 578.11 144.39 576.56 C 141.19 575.64 139.10 576.87 137.10 580.87 C 134.43 586.21 133.86 589.26 133.09 602.25 C 132.28 615.97 131.19 618.14 127.41 613.50 C 122.05 606.91 117.31 584.91 118.26 571.04 C 118.88 561.98 121.12 556.93 126.80 551.80 C 132.03 547.07 136.73 545.64 145.04 546.24 C 156.94 547.09 168.74 553.77 183.34 567.93 C 195.36 579.57 196.00 581.00 196.00 596.03 C 196.00 602.93 196.48 609.07 197.11 610.32 C 197.72 611.52 201.51 615.88 205.52 620.00 C 218.09 632.92 220.12 637.43 215.67 642.60 C 212.55 646.23 204.25 646.95 199.00 644.05 z M 549.96 514.98 C 547.64 513.54 550.48 506.70 555.14 502.49 C 561.64 496.62 568.68 493.84 576.19 494.20 C 581.16 494.44 582.55 494.86 582.80 496.19 C 583.19 498.25 576.77 503.11 565.50 509.28 C 555.86 514.55 551.73 516.07 549.96 514.98 z" stroke-linecap="round"></path>
</g>
</g>
</g>

  </svg>