<svg xmlns="http://www.w3.org/2000/svg" xmlns:xlink="http://www.w3.org/1999/xlink" width="2067px" height="2067px" viewBox="0 0 2067.1875 2067.1875">
    <g id="0d376585-2d6c-4b3b-a276-dcaf5b49ff77">
<g style="">
		<g id="0d376585-2d6c-4b3b-a276-dcaf5b49ff77-child-0">
<path style="stroke: rgb(193,193,193); stroke-opacity: 1.00; stroke-width: 0; stroke-dasharray: none; stroke-linecap: butt; stroke-dashoffset: 0; stroke-linejoin: miter; stroke-miterlimit: 4; fill: none; fill-rule: nonzero; opacity: 1;" transform="matrix(0.94907 0 0 0.948991 898.515063 1295.933823) matrix(1 0 0 1 0 0)  translate(-446.005, -588.272701)" d="M 628.98 1169.71 C 613.78 1155.22 573.76 1132.44 545.50 1122.18 C 515.22 1111.18 479.80 1103.23 442.50 1099.05 C 412.20 1095.66 396.39 1094.88 346.06 1094.29 L 297.63 1093.72 L 285.56 1085.71 C 274.38 1078.27 254.15 1067.87 232.50 1058.43 C 224.12 1054.77 222.82 1053.78 213.54 1044.00 C 208.06 1038.22 192.92 1022.92 179.90 1010.00 C 148.48 978.80 135.30 964.01 114.87 937.00 C 72.28 880.70 38.02 814.50 7.11 728.77 L 0.00 709.04 L 0.00 506.20 L 0.00 303.37 L 7.75 297.96 C 35.77 278.39 63.72 250.42 80.65 225.00 C 97.75 199.33 105.96 180.16 126.43 118.13 C 131.21 103.63 136.84 88.06 138.93 83.53 L 142.73 75.30 L 156.12 74.58 C 172.77 73.68 204.15 69.81 222.00 66.44 C 261.06 59.07 279.76 54.52 344.54 36.62 C 418.60 16.15 441.69 10.89 476.50 6.52 C 508.26 2.54 520.49 2.06 603.00 1.48 C 708.79 0.74 716.20 0.81 732.50 2.64 C 754.80 5.14 775.12 11.28 776.41 15.90 C 777.20 18.74 777.99 29.06 779.03 50.50 C 779.60 62.05 780.49 76.22 781.03 82.00 C 781.56 87.78 782.90 108.03 784.01 127.00 C 787.92 193.91 791.21 221.90 799.01 254.50 C 809.11 296.76 823.38 328.58 853.09 375.11 L 865.00 393.75 L 865.00 715.92 L 865.00 1038.08 L 850.17 1058.89 C 833.34 1082.51 820.19 1103.92 813.53 1118.52 C 811.03 1124.01 808.42 1129.60 807.73 1130.94 C 806.57 1133.23 805.42 1133.53 789.99 1135.60 C 755.41 1140.25 736.66 1144.69 691.00 1159.02 C 678.25 1163.03 642.72 1173.86 637.00 1175.49 C 636.14 1175.73 632.72 1173.26 628.98 1169.71 Z M 667.41 1122.39 C 677.36 1117.72 685.83 1113.57 686.24 1113.16 C 686.89 1112.51 690.75 1070.84 692.51 1045.50 C 692.86 1040.55 694.24 1024.54 695.58 1009.93 C 698.87 974.18 701.59 960.25 706.73 952.72 C 709.66 948.44 723.66 936.85 735.29 929.08 C 752.34 917.70 771.18 900.87 777.94 891.00 C 788.66 875.32 789.28 862.47 781.00 827.12 C 775.41 803.27 773.94 792.15 773.31 769.00 C 772.60 742.74 772.88 741.58 781.26 736.27 C 784.69 734.09 791.08 730.33 795.45 727.90 C 800.90 724.89 806.29 720.66 812.55 714.50 C 822.13 705.06 826.39 698.26 825.82 693.29 C 825.55 690.98 824.96 690.45 822.35 690.19 C 820.62 690.03 817.47 690.64 815.35 691.56 C 800.69 697.93 796.87 698.26 786.30 694.09 C 772.25 688.54 768.11 682.90 766.09 666.50 C 764.33 652.26 763.01 631.56 763.00 618.41 C 763.00 606.99 763.17 605.99 765.97 600.41 C 767.60 597.16 771.00 592.03 773.52 589.00 C 790.27 568.89 793.49 561.49 800.49 527.18 C 802.92 515.25 805.60 503.53 806.45 501.12 C 809.47 492.60 808.26 488.19 802.04 485.02 C 797.48 482.69 790.14 476.69 774.10 462.18 C 755.08 444.97 749.35 440.78 739.17 436.65 C 731.71 433.62 724.80 428.93 722.02 425.03 C 718.98 420.75 717.14 410.51 715.99 391.31 C 715.00 374.85 712.52 357.94 709.51 347.03 C 707.45 339.57 707.53 336.00 709.75 335.99 C 710.71 335.99 714.98 337.41 719.23 339.16 C 725.79 341.86 727.33 342.17 729.48 341.19 C 733.02 339.58 732.76 335.79 728.52 327.31 C 724.23 318.74 713.87 306.43 705.70 300.18 C 698.33 294.55 691.00 288.01 691.00 287.06 C 691.00 286.68 693.81 281.90 697.25 276.43 C 704.18 265.42 706.07 261.67 709.66 251.74 C 718.93 226.07 717.40 191.53 705.96 168.42 C 702.25 160.93 696.94 154.00 694.90 154.00 C 693.06 154.00 690.83 159.20 688.41 169.12 C 682.53 193.23 672.62 214.02 668.82 210.22 C 667.98 209.38 668.50 204.78 670.86 192.26 C 674.45 173.25 676.26 155.91 675.42 148.50 C 674.52 140.46 672.19 130.60 669.97 125.43 C 665.62 115.29 652.45 100.00 648.06 100.00 C 645.93 100.00 641.00 107.29 641.00 110.44 C 641.00 115.43 628.39 133.98 626.00 132.50 C 624.72 131.71 624.74 126.21 626.05 118.13 C 626.62 114.62 626.83 111.50 626.53 111.20 C 625.28 109.95 609.07 114.74 585.00 123.46 C 556.78 133.68 554.38 134.42 553.55 133.09 C 552.84 131.94 558.64 124.14 565.31 117.27 C 568.10 114.40 570.10 111.76 569.75 111.41 C 568.72 110.39 554.56 113.84 540.00 118.68 C 522.30 124.55 504.29 131.89 489.75 139.15 L 478.00 145.02 L 477.87 131.26 C 477.80 123.69 477.64 116.60 477.52 115.50 C 476.40 105.51 472.19 106.68 456.12 121.45 C 444.42 132.20 439.42 133.89 413.00 135.96 C 405.58 136.55 396.79 137.66 393.49 138.45 C 385.13 140.42 370.98 145.68 368.10 147.89 L 365.71 149.73 L 374.10 150.91 C 385.35 152.50 392.27 154.54 394.41 156.90 C 396.12 158.79 396.08 158.91 393.34 160.29 C 385.43 164.30 358.08 169.80 327.50 173.53 C 315.95 174.94 301.30 177.16 294.93 178.46 C 279.52 181.61 258.02 188.89 244.50 195.53 C 231.92 201.72 217.18 212.35 213.95 217.58 C 210.55 223.08 212.06 223.60 224.37 221.12 C 236.06 218.77 240.46 218.45 239.47 220.04 C 239.12 220.61 231.33 227.07 222.17 234.40 C 213.00 241.72 200.77 252.09 195.00 257.45 C 189.23 262.81 182.76 268.37 180.64 269.81 C 176.84 272.37 176.75 272.38 175.30 270.46 C 173.80 268.47 173.82 266.82 175.60 248.89 C 176.06 244.26 175.90 242.05 175.07 241.54 C 173.28 240.44 161.31 253.55 155.23 263.26 C 149.77 271.99 146.28 282.74 144.00 297.89 C 141.75 312.74 138.54 317.99 131.67 318.01 C 129.93 318.02 126.25 319.09 123.50 320.39 C 113.16 325.29 93.51 341.19 90.44 347.12 C 89.00 349.89 89.05 350.06 91.45 351.16 C 93.32 352.01 96.79 352.01 105.28 351.15 C 111.52 350.52 117.42 350.00 118.40 350.00 C 119.55 350.00 114.75 355.63 104.98 365.75 C 88.47 382.84 78.92 394.84 70.54 409.03 C 59.41 427.86 51.59 449.95 50.37 466.00 C 49.78 473.78 50.93 479.02 53.23 478.98 C 53.93 478.97 56.30 476.44 58.50 473.37 C 65.57 463.49 71.89 459.47 72.81 464.26 C 73.14 465.99 69.41 479.60 62.32 502.50 L 58.61 514.50 L 58.34 549.00 C 58.00 591.86 58.59 596.13 69.11 627.38 C 86.89 680.21 113.96 733.06 170.32 825.00 C 183.29 846.16 188.04 853.65 212.51 891.50 C 245.76 942.96 249.07 949.63 260.46 988.19 C 262.30 994.42 263.95 997.87 266.28 1000.33 C 269.94 1004.21 276.45 1006.60 280.56 1005.57 L 283.30 1004.89 L 282.69 992.19 C 282.12 980.54 280.20 960.05 276.52 926.50 C 275.74 919.35 274.84 910.80 274.53 907.50 C 274.22 904.20 273.30 895.04 272.48 887.14 C 270.81 870.90 270.64 864.11 271.89 862.15 C 273.20 860.07 283.28 858.08 296.10 857.36 C 313.76 856.37 313.82 856.42 338.97 893.40 C 376.54 948.63 406.43 985.00 414.25 985.00 C 416.11 985.00 416.23 984.55 415.71 979.50 C 415.29 975.44 415.52 973.62 416.59 972.56 C 418.63 970.51 423.56 972.14 447.13 982.63 C 468.97 992.37 508.89 1008.56 538.00 1019.50 C 605.07 1044.71 623.82 1054.01 630.45 1065.32 C 633.40 1070.35 635.97 1082.51 638.44 1103.02 C 640.43 1119.62 641.86 1127.88 643.17 1130.31 C 644.55 1132.89 646.17 1132.36 667.41 1122.39 Z M 883.18 858.50 C 883.24 777.10 883.56 645.92 883.89 567.00 L 884.50 423.50 L 888.00 429.50 L 891.50 435.50 L 891.76 709.66 L 892.01 983.81 L 888.90 992.66 C 887.18 997.52 885.18 1002.62 884.43 1004.00 C 883.29 1006.11 883.10 983.36 883.18 858.50 Z M 426.93 894.63 C 426.69 894.42 422.23 894.02 417.00 893.74 C 404.80 893.10 398.91 890.84 387.88 882.55 C 373.38 871.64 355.25 851.42 336.76 825.50 C 326.84 811.61 317.48 800.12 315.44 799.34 C 313.00 798.40 305.88 803.42 294.05 814.41 C 281.23 826.32 282.31 825.94 267.85 823.59 C 233.99 818.09 184.84 780.77 171.38 750.33 C 167.97 742.61 163.44 724.55 161.98 712.80 C 160.61 701.83 161.16 678.50 162.91 672.82 C 164.69 667.09 172.17 657.75 178.16 653.77 C 187.23 647.75 194.62 645.73 209.51 645.23 C 225.29 644.69 236.25 646.47 245.27 651.06 C 253.21 655.09 256.98 658.07 270.63 671.09 C 287.78 687.45 292.96 689.02 306.69 681.98 C 311.00 679.77 316.55 676.22 319.01 674.10 C 324.26 669.58 324.67 672.67 315.01 644.50 C 308.84 626.52 305.00 613.25 305.00 609.92 C 305.00 603.76 321.37 593.25 365.51 571.07 C 390.55 558.48 402.50 554.00 406.34 555.75 C 409.53 557.20 414.94 564.26 422.00 576.20 C 426.15 583.22 430.32 588.32 439.00 597.02 C 455.25 613.29 467.28 620.70 485.27 625.52 C 502.13 630.04 523.82 628.48 539.29 621.64 C 568.26 608.82 591.93 574.81 594.44 542.38 C 595.94 523.00 596.69 520.47 602.38 515.22 C 606.16 511.73 615.92 506.99 619.29 507.00 C 622.20 507.01 628.58 512.33 644.36 527.88 C 669.56 552.71 691.47 577.61 696.08 586.66 C 699.90 594.15 698.68 597.47 685.62 615.00 C 676.04 627.87 670.89 636.79 670.04 641.99 C 669.26 646.75 667.45 647.41 648.59 649.86 C 634.96 651.63 631.63 652.43 625.35 655.41 C 609.33 663.02 595.32 673.79 569.45 698.36 C 531.30 734.61 524.32 739.15 500.73 743.06 C 486.28 745.45 484.79 745.85 485.55 747.08 C 486.56 748.72 499.22 756.59 507.62 760.81 C 523.80 768.94 534.43 770.95 551.28 769.07 C 568.05 767.21 578.19 763.32 613.00 745.40 C 641.09 730.94 657.57 723.86 673.58 719.37 C 682.13 716.98 685.37 716.58 697.00 716.55 C 709.11 716.50 710.93 716.73 714.68 718.73 C 720.73 721.97 730.72 730.56 732.55 734.10 C 735.88 740.53 730.60 742.68 697.16 748.45 C 682.73 750.95 669.55 753.70 667.87 754.57 C 663.35 756.90 656.17 773.44 659.23 774.47 C 662.19 775.47 672.40 775.94 693.27 776.04 C 716.81 776.15 723.55 776.87 727.55 779.73 C 733.11 783.69 744.86 804.41 748.97 817.50 C 750.61 822.74 751.31 828.07 751.72 838.65 L 752.28 852.80 L 749.09 854.45 C 734.55 861.97 692.58 875.27 659.50 882.84 C 636.80 888.04 613.60 891.02 580.32 893.04 C 563.54 894.06 427.84 895.47 426.93 894.63 Z M 275.46 771.03 C 279.56 767.63 276.52 760.76 264.64 746.57 C 257.79 738.39 256.02 734.46 256.01 727.43 C 256.00 721.23 254.05 712.02 251.79 707.53 C 249.08 702.13 233.14 686.58 224.28 680.69 C 207.95 669.83 195.29 669.25 185.04 678.87 C 177.48 685.98 174.59 693.10 174.16 705.67 C 173.67 720.38 178.14 737.00 182.59 737.00 C 184.57 737.00 188.82 727.44 192.52 714.71 L 195.36 704.91 L 200.43 705.52 C 210.05 706.66 217.96 708.03 220.47 708.99 L 222.99 709.95 L 221.01 714.97 C 219.92 717.74 217.72 722.60 216.11 725.77 C 208.74 740.38 209.13 750.06 217.43 758.36 C 223.56 764.49 236.43 770.00 249.48 772.07 C 256.81 773.24 273.61 772.57 275.46 771.03 Z M 637.14 636.12 C 645.09 633.39 650.56 630.39 655.10 626.29 C 659.89 621.97 661.22 619.73 660.34 617.45 C 658.19 611.83 631.89 623.51 627.48 632.04 C 624.41 637.97 627.72 639.37 637.14 636.12 Z M 695.67 636.33 C 692.11 632.78 703.87 614.58 708.56 616.38 C 711.86 617.65 708.62 628.46 703.20 634.25 C 700.78 636.83 697.17 637.83 695.67 636.33 Z M 301.64 573.73 C 295.32 567.41 297.64 554.22 312.16 514.14 C 320.08 492.27 322.21 483.03 322.31 470.00 C 322.42 455.85 321.70 450.95 315.90 426.65 C 308.28 394.70 308.75 390.11 321.00 376.74 C 343.35 352.35 404.96 330.47 479.00 320.62 C 497.58 318.15 500.52 317.84 522.37 315.98 C 541.83 314.33 583.77 313.12 594.61 313.90 C 607.77 314.85 613.15 317.43 624.64 328.30 C 635.43 338.52 645.38 350.35 663.47 374.50 C 688.40 407.78 697.96 422.80 697.99 428.71 C 698.00 431.45 695.28 433.00 690.49 433.00 C 688.49 433.00 683.40 434.15 679.18 435.57 C 660.99 441.65 649.90 451.01 641.16 467.67 C 633.00 483.22 628.90 486.36 613.50 488.89 C 594.87 491.94 586.36 491.11 580.65 485.68 C 575.83 481.10 573.27 473.54 570.49 455.75 L 569.91 452.00 L 549.20 452.01 C 522.99 452.01 482.64 453.65 473.50 455.08 C 464.42 456.49 454.05 459.52 446.36 463.00 C 435.16 468.06 421.84 479.14 414.50 489.50 C 407.28 499.68 406.00 503.00 406.00 511.50 L 406.00 519.07 L 401.65 523.29 C 396.81 527.99 386.65 533.96 355.00 550.76 C 343.17 557.04 328.69 565.10 322.81 568.67 C 310.04 576.44 305.45 577.54 301.64 573.73 Z" stroke-linecap="round"></path>
</g>
</g>
</g>
<g id="4a925129-184b-4e6a-a309-bd7466528a22"><path style="fill: rgb(0,0,0); fill-opacity: 1.00;  stroke: none;  stroke-linecap: butt; stroke-linejoin: miter; stroke-miterlimit: 4; stroke-width: 0;  stroke-dashoffset: 0;  fill-rule: nonzero;" d="M47.06629,1033.59375c0,-544.84407 441.68339,-986.52746 986.52746,-986.52746c544.84407,0 986.52746,441.68339 986.52746,986.52746c0,544.84407 -441.68339,986.52746 -986.52746,986.52746c-544.84407,0 -986.52746,-441.68339 -986.52746,-986.52746z"></path></g><g id="f0751ac8-870f-45df-a788-ef025fa8f8f4">
<g style="">
		<g id="f0751ac8-870f-45df-a788-ef025fa8f8f4-child-0">
<path style="stroke: rgb(193,193,193); stroke-opacity: 1.00; stroke-width: 0; stroke-dasharray: none; stroke-linecap: butt; stroke-dashoffset: 0; stroke-linejoin: miter; stroke-miterlimit: 4; fill: rgb(255,107,74); fill-opacity: 1.00; fill-rule: nonzero; opacity: 1;" transform="matrix(1.671164 0 0 1.671087 1033.59375 1033.59375) matrix(1 0 0 1 0 0)  translate(-369.5, -492.730369)" d="M 563.36 983.78 C 562.95 983.11 562.06 970.39 561.38 955.53 C 559.87 922.00 559.40 920.22 549.72 911.38 C 540.64 903.08 533.01 899.67 488.50 884.02 C 416.62 858.74 369.46 839.03 350.51 826.34 C 344.57 822.36 343.25 822.22 342.03 825.43 C 341.02 828.07 341.79 831.76 344.38 836.76 C 346.37 840.62 346.38 841.00 344.50 841.00 C 341.87 841.00 328.07 826.93 316.55 812.50 C 296.32 787.17 281.01 765.05 263.53 735.94 C 257.11 725.25 251.55 716.18 251.16 715.78 C 250.78 715.39 246.89 716.20 242.52 717.59 C 237.68 719.12 229.35 720.63 221.24 721.44 C 213.90 722.17 207.62 723.05 207.27 723.40 C 206.39 724.28 208.26 743.44 214.02 792.50 C 220.27 845.81 221.27 856.76 220.21 860.50 C 219.48 863.11 218.85 863.54 215.43 863.77 C 207.59 864.32 201.54 857.94 200.53 848.07 C 198.00 823.43 194.72 814.54 179.85 792.00 C 155.35 754.87 97.83 665.74 89.41 651.85 C 72.97 624.74 52.71 587.22 41.57 563.28 C 7.92 490.93 -1.73 439.59 9.55 392.99 C 12.40 381.21 20.21 356.87 23.63 349.13 C 26.36 342.94 26.62 339.76 24.54 338.03 C 22.70 336.50 19.78 338.44 8.25 348.82 L 0.00 356.25 L 0.00 351.19 C 0.00 334.65 13.58 300.01 27.15 281.93 C 36.26 269.79 56.10 250.10 64.75 244.61 C 72.38 239.77 74.04 236.78 69.82 235.44 C 66.69 234.45 54.07 234.74 48.91 235.94 C 42.21 237.48 39.00 237.29 39.00 235.34 C 39.00 231.11 60.34 216.27 73.35 211.45 C 89.38 205.51 89.41 205.47 90.37 190.00 C 90.73 184.23 91.49 177.48 92.05 175.00 C 94.49 164.36 109.13 140.50 112.79 141.20 C 114.25 141.47 114.61 143.38 115.23 154.01 C 116.26 171.47 116.63 173.27 118.95 172.03 C 119.97 171.48 123.74 167.31 127.31 162.77 C 130.89 158.22 136.44 151.95 139.66 148.83 C 149.90 138.88 176.00 121.24 191.12 114.03 C 197.47 111.00 200.23 108.03 199.27 105.25 C 198.53 103.12 192.41 103.86 181.23 107.43 C 166.15 112.24 163.10 112.97 162.46 111.94 C 160.07 108.06 180.36 93.88 201.59 84.58 C 223.57 74.95 232.85 72.86 263.94 70.50 C 308.58 67.11 336.00 61.97 336.00 57.00 C 336.00 56.02 335.18 54.21 334.17 52.97 C 332.54 50.94 331.11 50.63 320.42 49.98 C 307.79 49.20 305.00 48.57 305.00 46.51 C 305.00 44.72 315.78 40.40 326.38 37.93 C 336.32 35.62 351.76 35.00 367.00 36.32 L 376.50 37.14 L 387.00 22.98 C 392.77 15.19 398.24 7.86 399.14 6.69 C 400.50 4.92 401.03 4.78 402.32 5.85 C 405.86 8.79 407.04 23.61 404.50 33.34 C 402.12 42.48 402.66 47.00 406.15 47.00 C 408.39 47.00 413.97 44.27 421.31 39.58 C 439.16 28.18 472.93 15.00 484.31 15.00 L 488.99 15.00 L 484.50 21.56 C 474.22 36.58 477.66 37.88 500.00 27.43 C 506.33 24.47 515.33 21.11 520.00 19.94 C 524.68 18.78 532.26 16.75 536.86 15.42 C 546.57 12.61 551.80 12.31 552.65 14.52 C 552.97 15.36 552.25 18.31 551.06 21.09 C 546.93 30.69 550.15 35.13 556.69 28.84 C 560.82 24.88 563.46 19.99 564.44 14.50 C 565.13 10.64 567.79 4.03 569.85 1.07 C 570.67 -0.11 571.66 0.30 575.44 3.40 C 581.44 8.31 587.69 17.62 590.92 26.44 C 593.33 33.03 593.50 34.67 593.50 51.00 C 593.50 69.51 592.14 78.65 586.60 97.50 C 585.30 101.90 584.44 105.84 584.68 106.25 C 584.92 106.66 586.44 107.00 588.06 107.00 C 596.70 107.00 610.03 81.76 611.68 62.30 C 612.43 53.38 613.88 51.69 617.45 55.54 C 621.09 59.47 628.53 72.70 630.67 79.06 C 632.26 83.78 632.50 87.94 632.50 110.50 C 632.50 135.12 632.38 136.86 630.17 143.24 C 627.59 150.71 617.78 167.61 611.24 175.84 C 608.91 178.78 607.00 181.76 607.00 182.47 C 607.00 184.25 608.96 185.71 612.51 186.56 C 617.17 187.69 624.13 191.46 629.73 195.88 C 635.32 200.30 643.05 210.53 644.86 215.90 C 645.96 219.18 646.48 230.00 645.53 230.00 C 645.28 230.00 641.23 227.50 636.54 224.44 C 631.84 221.38 626.77 218.79 625.25 218.69 C 622.81 218.52 622.46 218.88 622.18 221.90 C 621.96 224.19 622.85 227.28 624.91 231.40 C 629.22 239.99 630.90 251.58 631.82 279.05 C 632.50 299.08 632.89 303.08 634.53 306.49 C 637.22 312.07 644.87 319.72 648.50 320.45 C 665.89 323.96 691.02 342.07 702.74 359.54 C 707.28 366.31 708.43 367.43 711.98 368.52 C 715.72 369.67 720.92 373.29 721.54 375.18 C 721.84 376.10 720.99 379.47 719.65 382.68 C 716.08 391.19 715.16 395.11 713.45 409.00 C 709.76 439.00 695.70 455.75 686.40 466.29 C 681.48 471.88 671.39 475.84 671.39 475.84 L 676.10 493.50 C 677.07 500.65 678.12 512.58 678.45 520.00 C 680.00 554.91 680.41 556.44 690.01 563.16 C 701.34 571.07 714.22 572.91 726.50 568.37 C 736.67 564.62 739.00 564.32 739.00 566.75 C 739.00 570.38 732.15 582.44 727.30 587.36 C 718.63 596.16 711.98 599.84 699.82 602.61 C 687.78 605.35 686.21 609.62 687.42 636.38 C 689.10 673.61 689.93 678.67 698.80 705.50 C 702.93 718.00 703.43 720.47 703.42 728.50 C 703.42 735.50 702.91 738.78 701.14 743.24 C 695.03 758.64 685.35 767.78 649.48 791.99 C 625.66 808.07 620.75 812.14 619.12 817.21 C 617.07 823.59 612.46 871.84 609.51 918.00 C 607.95 942.35 606.27 961.31 605.43 964.13 C 605.15 965.06 601.81 966.90 597.60 968.43 C 593.57 969.90 586.72 973.14 582.38 975.63 C 573.89 980.51 565.36 985.00 564.59 985.00 C 564.33 985.00 563.78 984.45 563.36 983.78 z M 457.50 761.99 C 527.68 760.18 531.45 759.70 589.00 745.12 C 606.33 740.73 629.03 735.50 639.44 733.49 C 663.15 728.93 666.72 727.20 671.63 718.00 C 674.51 712.61 674.21 697.48 671.08 689.50 C 669.79 686.20 667.28 679.41 665.52 674.40 C 660.56 660.37 650.35 647.24 640.50 642.25 C 636.07 640.00 634.37 639.73 625.50 639.85 C 616.73 639.96 601.47 641.43 586.87 643.56 L 582.25 644.24 L 583.60 636.48 C 584.34 632.21 585.71 627.88 586.64 626.85 C 589.82 623.33 610.31 619.02 623.92 619.01 C 643.35 618.99 653.54 613.15 650.89 603.55 C 649.71 599.31 642.20 590.67 637.61 588.30 C 631.12 584.94 598.34 585.66 583.50 589.49 C 574.59 591.79 561.10 598.62 544.18 609.38 C 511.55 630.15 498.21 636.05 479.16 638.12 C 467.04 639.43 452.00 638.32 444.10 635.53 C 436.45 632.84 419.00 619.87 419.00 616.89 C 419.00 615.79 417.11 616.02 434.00 615.06 C 442.06 614.61 449.83 613.65 451.50 612.91 C 461.49 608.48 476.62 594.34 494.21 573.00 C 509.39 554.59 519.57 546.03 538.00 536.17 C 552.47 528.43 556.07 527.64 577.79 527.47 C 590.92 527.37 597.45 526.95 598.24 526.16 C 599.12 525.28 598.48 524.05 595.57 521.08 C 589.93 515.30 590.80 513.22 607.46 492.60 C 617.12 480.65 624.00 470.69 624.00 468.64 C 624.00 466.21 617.30 458.49 597.25 437.79 C 586.75 426.94 575.31 414.16 571.83 409.38 C 556.62 388.48 554.68 386.76 545.74 386.21 C 537.81 385.71 529.99 388.50 523.67 394.06 C 518.22 398.86 517.46 401.81 516.46 421.93 C 516.10 429.31 515.16 437.86 514.37 440.93 C 512.45 448.44 505.89 462.00 500.55 469.48 C 495.66 476.33 486.52 483.37 476.97 489.12 C 465.57 495.98 461.09 497.41 453.50 499.40 C 446.34 501.28 438.95 501.50 431.85 501.48 C 424.97 501.46 411.52 499.40 411.52 499.40 C 411.52 499.40 398.91 496.40 391.68 492.09 C 384.69 487.92 377.77 482.78 372.58 477.65 C 364.12 469.29 359.35 462.54 351.32 447.55 C 347.57 440.56 343.37 433.48 341.98 431.81 L 339.46 428.79 L 330.48 432.30 C 312.29 439.40 269.68 461.00 250.66 472.76 C 237.37 480.99 236.46 485.01 243.72 503.50 C 245.67 508.45 249.70 519.46 252.68 527.96 L 258.11 543.41 L 255.80 545.25 C 250.96 549.11 242.23 554.78 235.53 558.42 L 228.56 562.20 L 214.03 547.31 C 206.04 539.12 197.48 531.06 195.00 529.39 C 184.54 522.33 164.63 516.91 149.00 516.87 C 124.77 516.79 110.51 527.22 103.07 550.46 C 98.21 565.63 97.51 571.84 99.44 582.96 C 106.72 625.04 135.91 662.54 177.57 683.31 C 195.73 692.37 210.04 695.72 219.56 693.13 C 225.87 691.41 232.51 686.43 237.51 679.67 C 246.53 667.46 247.09 666.87 249.33 667.19 C 251.66 667.53 261.19 678.84 270.02 691.77 C 303.32 740.55 325.16 758.92 353.39 761.88 C 365.03 763.11 412.25 763.15 457.50 761.99 z M 660.66 477.33 C 658.55 477.33 655.72 476.60 653.76 476.11 C 652.28 475.74 650.98 475.26 649.90 474.86 C 648.77 474.45 643.34 472.02 643.34 472.02 C 643.34 472.02 636.77 469.00 635.02 467.35 C 633.94 466.34 643.18 485.09 640.33 499.25 C 637.79 511.84 623.08 525.32 622.62 526.16 C 622.16 527.01 620.78 527.34 631.60 528.93 C 636.98 529.72 641.21 530.70 645.02 532.44 C 648.26 533.91 653.29 538.09 653.29 538.09 L 662.92 544.67 C 662.92 544.67 662.54 477.33 660.66 477.33 z M 623.03 511.98 C 628.04 509.30 633.24 494.33 631.10 488.75 C 630.52 487.24 629.61 486.00 629.07 486.00 C 625.81 486.00 621.10 496.57 619.70 505.29 C 618.70 511.58 618.84 514.23 623.03 511.98 z M 246.32 454.67 C 250.27 452.85 264.75 445.25 278.50 437.80 C 292.25 430.35 312.50 419.75 323.50 414.24 C 334.50 408.73 344.32 403.32 345.33 402.20 C 348.11 399.11 347.11 395.80 342.75 393.67 C 340.32 392.48 339.00 391.15 339.00 389.88 C 339.00 386.98 343.59 378.38 349.22 370.74 C 368.85 344.10 398.55 334.32 461.67 333.71 L 482.81 333.50 L 487.06 336.50 C 493.57 341.10 495.28 344.03 496.15 352.15 C 497.21 362.10 499.79 368.71 504.58 373.72 C 509.48 378.86 511.49 379.06 522.34 375.52 C 526.80 374.06 534.57 372.61 541.21 372.00 C 547.42 371.43 553.99 370.68 555.82 370.35 C 559.62 369.66 560.34 368.29 562.58 357.52 C 564.63 347.68 568.12 341.12 574.52 335.07 C 583.08 326.98 592.79 323.39 616.66 319.53 C 618.94 319.16 621.63 318.26 622.62 317.54 C 624.20 316.38 624.26 315.87 623.12 313.36 C 619.10 304.53 585.94 258.47 564.70 232.22 C 553.77 218.72 543.96 209.24 534.01 202.59 L 527.50 198.24 L 497.00 200.05 C 418.44 204.73 410.53 205.47 386.00 210.42 C 336.42 220.44 290.39 235.83 271.32 248.78 C 257.96 257.85 247.40 273.48 246.28 285.83 C 245.54 293.97 247.03 301.00 254.12 322.83 C 264.45 354.61 264.04 358.03 244.95 401.00 C 240.67 410.62 236.68 421.20 236.07 424.50 C 234.43 433.42 232.89 452.73 233.60 455.54 C 234.46 458.95 237.54 458.74 246.32 454.67 z M 368.28 424.25 C 370.72 421.54 372.06 417.30 373.55 407.52 C 375.70 393.42 384.05 378.63 394.01 371.27 C 406.88 361.76 407.90 360.29 403.54 357.43 C 399.00 354.46 390.35 358.69 379.29 369.29 C 366.63 381.42 361.22 393.18 360.27 410.67 C 359.72 420.81 359.73 420.84 362.51 423.42 C 365.81 426.48 366.21 426.53 368.28 424.25 z M 586.10 390.82 C 586.74 389.62 588.33 384.35 589.63 379.09 C 590.93 373.84 593.14 367.18 594.55 364.30 C 597.28 358.72 604.10 352.02 610.25 348.88 C 616.38 345.74 614.82 341.00 607.66 341.00 C 599.77 341.00 588.45 349.25 582.56 359.31 C 577.72 367.57 575.06 385.50 577.89 390.79 C 579.50 393.80 584.49 393.82 586.10 390.82 z M 199.00 644.05 C 196.38 642.60 192.12 641.88 182.01 641.16 L 168.52 640.20 L 163.44 634.75 C 151.63 622.06 150.35 610.13 158.97 593.05 C 160.64 589.76 162.00 586.44 162.00 585.69 C 162.00 584.46 149.75 578.11 144.39 576.56 C 141.19 575.64 139.10 576.87 137.10 580.87 C 134.43 586.21 133.86 589.26 133.09 602.25 C 132.28 615.97 131.19 618.14 127.41 613.50 C 122.05 606.91 117.31 584.91 118.26 571.04 C 118.88 561.98 121.12 556.93 126.80 551.80 C 132.03 547.07 136.73 545.64 145.04 546.24 C 156.94 547.09 168.74 553.77 183.34 567.93 C 195.36 579.57 196.00 581.00 196.00 596.03 C 196.00 602.93 196.48 609.07 197.11 610.32 C 197.72 611.52 201.51 615.88 205.52 620.00 C 218.09 632.92 220.12 637.43 215.67 642.60 C 212.55 646.23 204.25 646.95 199.00 644.05 z M 549.96 514.98 C 547.64 513.54 550.48 506.70 555.14 502.49 C 561.64 496.62 568.68 493.84 576.19 494.20 C 581.16 494.44 582.55 494.86 582.80 496.19 C 583.19 498.25 576.77 503.11 565.50 509.28 C 555.86 514.55 551.73 516.07 549.96 514.98 z" stroke-linecap="round"></path>
</g>
</g>
</g>
<g id="08e54deb-fb70-482e-ad40-3240f88b68bc"><path style="fill: none;  stroke: rgb(0,0,0); stroke-opacity: 1.00;  stroke-linecap: round; stroke-linejoin: miter; stroke-miterlimit: 4; stroke-width: 5;  stroke-dashoffset: 0;  fill-rule: nonzero;" d="M1431.47067,1142.8937"></path></g>
  </svg>